<?xml version="1.0" encoding="UTF-8"?>
<svg id="Layer_1" xmlns="http://www.w3.org/2000/svg" xmlns:xlink="http://www.w3.org/1999/xlink" version="1.1" viewBox="0 0 818.52 294.48">
  <!-- Generator: Adobe Illustrator 30.5.1, SVG Export Plug-In . SVG Version: 2.1.4 Build 3)  -->
  <defs>
    <style>
      .st0 {
        fill: url(#linear-gradient2);
      }

      .st1 {
        fill: url(#linear-gradient1);
      }

      .st2 {
        fill: url(#linear-gradient3);
      }

      .st3 {
        fill: #193550;
      }

      .st4 {
        fill: url(#linear-gradient);
      }

      .st5 {
        fill: none;
        stroke: url(#linear-gradient4);
        stroke-miterlimit: 10;
        stroke-width: 26px;
      }

      .st6 {
        fill: #c6812a;
      }
    </style>
    <linearGradient id="linear-gradient" x1="726.03" y1="268.7" x2="726.03" y2="134.34" gradientUnits="userSpaceOnUse">
      <stop offset="0" stop-color="#f8b31d"/>
      <stop offset=".67" stop-color="#c6812a"/>
    </linearGradient>
    <linearGradient id="linear-gradient1" x1="621.61" y1="205.57" x2="739.13" y2="39.23" gradientUnits="userSpaceOnUse">
      <stop offset="0" stop-color="#f7931e"/>
      <stop offset=".28" stop-color="#f7a721"/>
      <stop offset=".51" stop-color="#f8bc25"/>
      <stop offset=".54" stop-color="#f7be28"/>
      <stop offset=".57" stop-color="#f7c431"/>
      <stop offset=".59" stop-color="#f7cf42"/>
      <stop offset=".61" stop-color="#f6de59"/>
      <stop offset=".63" stop-color="#f6ef72"/>
      <stop offset=".65" stop-color="#f6e666"/>
      <stop offset=".7" stop-color="#f6d24b"/>
      <stop offset=".76" stop-color="#f6c236"/>
      <stop offset=".82" stop-color="#f6b727"/>
      <stop offset=".89" stop-color="#f6b11e"/>
      <stop offset="1" stop-color="#f7af1c"/>
    </linearGradient>
    <linearGradient id="linear-gradient2" x1="299.49" y1="294.64" x2="434.33" y2="61.09" gradientUnits="userSpaceOnUse">
      <stop offset=".28" stop-color="#193550"/>
      <stop offset=".37" stop-color="#1a3752"/>
      <stop offset=".43" stop-color="#1d3e5c"/>
      <stop offset=".49" stop-color="#234b6b"/>
      <stop offset=".54" stop-color="#2c5d82"/>
      <stop offset=".59" stop-color="#37749f"/>
      <stop offset=".64" stop-color="#448fc1"/>
      <stop offset=".66" stop-color="#4ea3da"/>
      <stop offset=".7" stop-color="#4898cd"/>
      <stop offset=".78" stop-color="#3a7cab"/>
      <stop offset=".89" stop-color="#235075"/>
      <stop offset=".93" stop-color="#1a3f60"/>
    </linearGradient>
    <linearGradient id="linear-gradient3" x1="524.31" y1="265.98" x2="634.44" y2="75.24" xlink:href="#linear-gradient2"/>
    <linearGradient id="linear-gradient4" x1="78.5" y1="286.35" x2="186.35" y2="5.41" gradientUnits="userSpaceOnUse">
      <stop offset="0" stop-color="#1a3f60"/>
      <stop offset=".1" stop-color="#1b4264"/>
      <stop offset=".21" stop-color="#214d71"/>
      <stop offset=".33" stop-color="#2a5f87"/>
      <stop offset=".44" stop-color="#3778a6"/>
      <stop offset=".56" stop-color="#4797cd"/>
      <stop offset=".59" stop-color="#4ca1d9"/>
      <stop offset=".66" stop-color="#3d81b1"/>
      <stop offset=".72" stop-color="#31668e"/>
      <stop offset=".79" stop-color="#275073"/>
      <stop offset=".86" stop-color="#20415f"/>
      <stop offset=".93" stop-color="#1c3853"/>
      <stop offset="1" stop-color="#1b3550"/>
    </linearGradient>
  </defs>
  <g id="LOGO">
    <path class="st6" d="M780.52,175.57h36.48c1.2,0,1.93-1.33,1.28-2.34l-75.02-117.64c-.28-.44-.76-.7-1.28-.7h-36.48c-1.2,0-1.93,1.33-1.28,2.34l75.02,117.64c.28.44.76.7,1.28.7Z"/>
    <g id="House">
      <path class="st4" d="M792.75,169.41h-133.7v111.84c0,2.47,2.01,4.48,4.48,4.48h36.95c2.47,0,4.48-2.01,4.48-4.48v-75.19h42.15v75.19c0,2.47,2.01,4.48,4.48,4.48h36.95c2.47,0,4.48-2.01,4.48-4.48v-76.56s-.26-35.29-.26-35.29Z"/>
      <g id="Roof">
        <path class="st1" d="M666.38,175.27h-36.48c-1.2,0-1.93-1.33-1.28-2.34l75.02-117.64c.28-.44.76-.7,1.28-.7h36.48c1.2,0,1.93,1.33,1.28,2.34l-75.02,117.64c-.28.44-.76.7-1.28.7Z"/>
      </g>
    </g>
    <g>
      <path class="st0" d="M283.39,55.12c105.35-3.36,221.27-8.43,223.22,111.19-2.59,127.7-120.36,122.59-223.22,119.04V55.12ZM332.38,247.31c67.34,4.17,123.16-4.02,122.29-79.67.24-72.16-57.26-78.33-122.29-74.71v154.38Z"/>
      <path class="st2" d="M603.87,60.04v221.14c0,2.51-2.32,4.55-5.19,4.55h-38.61c-2.87,0-5.19-2.04-5.19-4.55V60.04c0-2.51,2.32-4.55,5.19-4.55h38.61c2.87,0,5.19,2.04,5.19,4.55Z"/>
    </g>
    <g>
      <g id="J">
        <path class="st5" d="M180.22,8.05v165.9-.09c0,32.98-26.73,59.71-59.71,59.71s-59.71-26.73-59.71-59.71,26.73-59.71,59.71-59.71l8.31-.07.21-51.62-6.21.06c-61.78-.42-109.82,49.05-109.82,109.5s49.01,109.46,109.46,109.46,109.46-49.01,109.46-109.46v1.18V52.49v119.53"/>
      </g>
      <circle class="st3" cx="231.91" cy="15.57" r="15.57"/>
    </g>
  </g>
</svg>